<?xml version="1.0" encoding="iso-8859-1"?>
<!-- Generator: Adobe Illustrator 17.1.0, SVG Export Plug-In . SVG Version: 6.00 Build 0)  -->
<!DOCTYPE svg PUBLIC "-//W3C//DTD SVG 1.1//EN" "http://www.w3.org/Graphics/SVG/1.1/DTD/svg11.dtd">
<svg xmlns="http://www.w3.org/2000/svg" xmlns:xlink="http://www.w3.org/1999/xlink" version="1.1" id="Capa_1" x="0px" y="0px" viewBox="0 0 297 297" style="enable-background:new 0 0 297 297;" xml:space="preserve" width="512px" height="512px">
<g>
	<path d="M271.833,230V25c0-4.418-3.249-8-7.667-8h-200c-4.418,0-8.333,3.582-8.333,8v57H33.667h-0.5c-4.418,0-8.333,3.582-8.333,8   v140C11.833,230,0,241.215,0,255c0,13.785,11.381,25,25.167,25h247C285.952,280,297,268.785,297,255   C297,241.215,285.833,230,271.833,230z M272.167,264h-247c-4.963,0-9-4.037-9-9c0-4.963,4.037-9,9-9h247c4.963,0,9,4.037,9,9   C281.167,259.963,277.129,264,272.167,264z M221.833,230h-33v-82h33V230z M71.834,132h16v98h-16V132z M103.834,172.071L161.9,230   h-58.066V172.071z M255.833,230h-18v-90c0-4.418-3.249-8-7.667-8h-41.333V90c0-4.418-3.249-8-7.667-8h-19.333V33h94V230z    M145.833,82h-16V33h16V82z M113.834,82h-42V33h42V82z M172.833,98v120.64l-69-69.233V124c0-4.418-3.249-8-7.667-8H70.873   L52.934,98H172.833z M40.833,108.858l15.005,15.055c-0.001,0.029-0.005,0.058-0.005,0.087v106h-15V108.858z" fill="#333333"/>
</g>
<g>
</g>
<g>
</g>
<g>
</g>
<g>
</g>
<g>
</g>
<g>
</g>
<g>
</g>
<g>
</g>
<g>
</g>
<g>
</g>
<g>
</g>
<g>
</g>
<g>
</g>
<g>
</g>
<g>
</g>
</svg>
