<?xml version="1.0" encoding="iso-8859-1"?>
<!-- Generator: Adobe Illustrator 19.0.0, SVG Export Plug-In . SVG Version: 6.00 Build 0)  -->
<svg xmlns="http://www.w3.org/2000/svg" xmlns:xlink="http://www.w3.org/1999/xlink" version="1.1" id="Capa_1" x="0px" y="0px" viewBox="0 0 512 512" style="enable-background:new 0 0 512 512;" xml:space="preserve" width="512px" height="512px">
<g>
	<g>
		<path d="M70,291c-5.52,0-10,4.48-10,10c0,5.52,4.48,10,10,10s10-4.48,10-10C80,295.48,75.52,291,70,291z" fill="#333333"/>
	</g>
</g>
<g>
	<g>
		<path d="M282,291H110c-5.523,0-10,4.477-10,10s4.477,10,10,10h172c5.523,0,10-4.477,10-10S287.523,291,282,291z" fill="#333333"/>
	</g>
</g>
<g>
	<g>
		<path d="M502,471h-10v-10c0-13.036-8.361-24.152-20-28.28V361c0-8.01-3.121-15.543-8.789-21.212    c-3.22-3.219-7.042-5.614-11.211-7.085V171h10c4,0,7.616-2.384,9.191-6.061L498.594,101H502c5.523,0,10-4.477,10-10    s-4.477-10-10-10h-13.82l-17.236-34.472C469.25,43.14,465.788,41,462,41h-10V31c0-5.523-4.477-10-10-10s-10,4.477-10,10v10h-10    c-3.788,0-7.25,2.14-8.944,5.528L395.82,81H382c-5.523,0-10,4.477-10,10s4.477,10,10,10h3.406l27.402,63.939    C414.384,168.616,418,171,422,171h10v161.72c-11.639,4.128-20,15.243-20,28.28v71.72c-11.639,4.128-20,15.243-20,28.28v10h-60v-40    h10c5.523,0,10-4.477,10-10v-20c0-16.542-13.458-30-30-30h-10v-20h10c5.523,0,10-4.477,10-10v-60c0-16.542-13.458-30-30-30H50    c-16.542,0-30,13.458-30,30v60c0,5.523,4.477,10,10,10h10v20H30c-16.542,0-30,13.458-30,30v20c0,5.523,4.477,10,10,10h10v40H10    c-5.523,0-10,4.477-10,10s4.477,10,10,10h492c5.523,0,10-4.477,10-10S507.523,471,502,471z M40,281c0-5.514,4.486-10,10-10h252    c5.514,0,10,4.486,10,10v50c-1.799,0-266.813,0-272,0V281z M292,351v20h-20v-20H292z M252,351v20H100v-20H252z M80,351v20H60v-20    H80z M60,471H40v-40h20V471z M272,471H80v-40h192V471z M312,471h-20v-40h20V471z M20,411v-10c0-5.514,4.486-10,10-10    c77.736,0,289.206,0,292,0c5.514,0,10,4.486,10,10v10h-10C307.349,411,27.148,411,20,411z M428.18,61h27.64l10,20h-47.64    L428.18,61z M428.594,151l-21.429-50h69.67l-21.429,50H452v-25c0-5.523-4.477-10-10-10s-10,4.477-10,10v25H428.594z M432,361    c0-5.514,4.486-10,10-10c2.668,0,5.179,1.041,7.068,2.931c1.891,1.89,2.932,4.401,2.932,7.069v70h-20V361z M472,471h-60v-10    c0-5.514,4.486-10,10-10h40c5.514,0,10,4.486,10,10V471z" fill="#333333"/>
	</g>
</g>
<g>
	<g>
		<path d="M161.634,88.986c-2.859-2.141-6.642-2.593-9.927-1.189C146.737,89.922,141.453,91,136,91c-22.056,0-40-17.944-40-40    c0-1.618,0.096-3.225,0.286-4.776c0.434-3.55-1.061-7.062-3.92-9.209c-2.859-2.147-6.648-2.604-9.937-1.2    C60.299,45.274,46,66.936,46,91c0,33.084,26.916,60,60,60c30.364,0,55.974-22.709,59.57-52.824    C165.993,94.63,164.493,91.127,161.634,88.986z M106,131c-22.056,0-40-17.944-40-40c0-10.601,4.162-20.502,11.242-27.82    C82.886,90.444,107.088,111,136,111c1.598,0,3.187-0.062,4.766-0.186C133.838,122.953,120.762,131,106,131z" fill="#333333"/>
	</g>
</g>
<g>
</g>
<g>
</g>
<g>
</g>
<g>
</g>
<g>
</g>
<g>
</g>
<g>
</g>
<g>
</g>
<g>
</g>
<g>
</g>
<g>
</g>
<g>
</g>
<g>
</g>
<g>
</g>
<g>
</g>
</svg>
