<?xml version="1.0" encoding="iso-8859-1"?>
<!-- Generator: Adobe Illustrator 19.0.0, SVG Export Plug-In . SVG Version: 6.00 Build 0)  -->
<svg xmlns="http://www.w3.org/2000/svg" xmlns:xlink="http://www.w3.org/1999/xlink" version="1.1" id="Capa_1" x="0px" y="0px" viewBox="0 0 469.333 469.333" style="enable-background:new 0 0 469.333 469.333;" xml:space="preserve" width="512px" height="512px">
<g>
	<g>
		<path d="M458.667,448H448V32c0-17.646-14.354-32-32-32c-17.646,0-32,14.354-32,32v10.667H85.333V32c0-17.646-14.354-32-32-32    c-17.646,0-32,14.354-32,32v416H10.667C4.771,448,0,452.771,0,458.667c0,5.896,4.771,10.667,10.667,10.667H96    c5.896,0,10.667-4.771,10.667-10.667c0-5.896-4.771-10.667-10.667-10.667H85.333V106.667H128v32    c0,5.896,4.771,10.667,10.667,10.667h10.667v152.613c-6.258,3.724-10.667,10.262-10.667,18.053    c0,7.792,4.409,14.329,10.667,18.053V352c0,5.896,4.771,10.667,10.667,10.667c5.896,0,10.667-4.771,10.667-10.667v-13.947    c6.258-3.724,10.667-10.262,10.667-18.053c0-7.792-4.409-14.329-10.667-18.053V149.333h10.667c5.896,0,10.667-4.771,10.667-10.667    v-32h64v352c0,5.896,4.771,10.667,10.667,10.667s10.667-4.771,10.667-10.667v-32H384V448h-10.667    c-5.896,0-10.667,4.771-10.667,10.667c0,5.896,4.771,10.667,10.667,10.667h85.333c5.896,0,10.667-4.771,10.667-10.667    C469.333,452.771,464.563,448,458.667,448z M170.667,128h-21.333v-21.333h21.333V128z M384,405.333H277.333v-42.667H384V405.333z     M384,341.333H277.333v-42.667H384V341.333z M384,277.333H277.333v-42.667H384V277.333z M384,213.333H277.333v-42.667H384V213.333    z M384,149.333H277.333v-42.667H384V149.333z M426.667,448h-21.333V96c0-5.896-4.771-10.667-10.667-10.667h-320    C68.771,85.333,64,90.104,64,96v352H42.667V32c0-5.885,4.781-10.667,10.667-10.667C59.219,21.333,64,26.115,64,32v21.333    C64,59.229,68.771,64,74.667,64h320c5.896,0,10.667-4.771,10.667-10.667V32c0-5.885,4.781-10.667,10.667-10.667    c5.885,0,10.667,4.781,10.667,10.667V448z" fill="#333333"/>
	</g>
</g>
<g>
</g>
<g>
</g>
<g>
</g>
<g>
</g>
<g>
</g>
<g>
</g>
<g>
</g>
<g>
</g>
<g>
</g>
<g>
</g>
<g>
</g>
<g>
</g>
<g>
</g>
<g>
</g>
<g>
</g>
</svg>
